<svg xmlns="http://www.w3.org/2000/svg" width="17" height="13" viewBox="0 0 17 13" fill="none">
<path fill-rule="evenodd" clip-rule="evenodd" d="M1.88976 0.587158H15.2756C15.6 0.587597 15.9111 0.722716 16.1405 0.962884C16.3699 1.20305 16.4989 1.52866 16.4993 1.86831V10.9729C16.4989 11.3125 16.3698 11.638 16.1404 11.8782C15.911 12.1183 15.6 12.2534 15.2756 12.2538H1.88976C1.56536 12.2534 1.25437 12.1183 1.02497 11.8782C0.795566 11.638 0.666481 11.3125 0.666016 10.9729V1.86831C0.666435 1.52866 0.795499 1.20305 1.0249 0.962884C1.25431 0.722716 1.56533 0.587597 1.88976 0.587158ZM1.40825 10.8706L6.26046 6.42049L1.40825 1.97035V10.8706ZM6.82184 6.93509L1.87023 11.4764C1.87656 11.4764 1.88325 11.4764 1.88976 11.4764H15.2756C15.2821 11.4764 15.2888 11.4764 15.2951 11.4764L10.3433 6.93509L9.38807 7.81141C9.166 8.01758 8.87949 8.13142 8.58268 8.13142C8.28588 8.13142 7.99936 8.01758 7.77729 7.81141L6.82184 6.93509ZM10.9049 6.42049L15.7571 10.8706V1.97035L10.9049 6.42049ZM1.87023 1.36458L8.26443 7.22867C8.35246 7.30953 8.46557 7.35411 8.58268 7.35411C8.69979 7.35411 8.8129 7.30953 8.90093 7.22867L15.2951 1.36458C15.2886 1.36458 15.2821 1.36458 15.2756 1.36458H1.88976C1.88325 1.36421 1.87656 1.36421 1.87023 1.36458Z" fill="#222222"/>
</svg>